<?xml version="1.0" encoding="utf-8"?>
<!-- Generator: Adobe Illustrator 22.0.1, SVG Export Plug-In . SVG Version: 6.00 Build 0)  -->
<svg version="1.1" id="Layer_1" xmlns="http://www.w3.org/2000/svg" xmlns:xlink="http://www.w3.org/1999/xlink" x="0px" y="0px"
	 viewBox="0 0 858 230" style="enable-background:new 0 0 858 230;" xml:space="preserve">
<style type="text/css">
	.st0{fill:#FFFFFF;}
</style>
<g>
	<path class="st0" d="M657.2,62.7c-11.6,0-18.9,3.9-18.9,14v76.6c0,10.1,7.3,14,18.9,14c11.6,0,18.8-3.9,18.8-14V76.7
		C676,66.5,668.8,62.7,657.2,62.7z"/>
	<polygon class="st0" points="326.1,141 361.2,141 343.7,69.2 	"/>
	<path class="st0" d="M-1.8,0v230h861.6V0H-1.8z M128.1,91.9H93.7V76.7c0-10.1-7.3-14-18.8-14c-11.6,0-18.9,3.9-18.9,14v76.6
		c0,10.1,7.3,13.8,18.9,13.8s18.8-3.6,18.8-13.8V133h34.4v18.9c0,22.7-18.5,35.7-54.2,35.7s-54.2-13-54.2-35.7V78.1
		c0-22.7,18.5-35.7,54.2-35.7s54.2,13,54.2,35.7L128.1,91.9L128.1,91.9z M265,186h-37v-60.8h-41.3V186h-36.4V44h36.4v60.8h41.2V44
		h37v142H265z M372.4,186l-6.3-25.8h-44.6l-6.3,25.8h-33.4l37.1-142h53.2l37,141.9h-36.7V186z M578.5,186h-34.4V84.2L518.9,186
		h-34.4L457.4,85.6V186h-31.7V44h50.6l26.8,100.8L527.9,44h50.6V186z M712.4,151.9c0,22.7-19.5,35.7-55.2,35.7s-55.2-13-55.2-35.7
		V78.1c0-22.7,19.5-35.7,55.2-35.7s55.2,13,55.2,35.7V151.9z M801.4,138.9v47H765v-47L719,44h38l27.8,64.7L812.6,44h34.7
		L801.4,138.9z"/>
</g>
</svg>
