<?xml version="1.0" encoding="utf-8"?>
<!-- Generator: Adobe Illustrator 22.0.1, SVG Export Plug-In . SVG Version: 6.00 Build 0)  -->
<svg version="1.1" id="Layer_1" xmlns="http://www.w3.org/2000/svg" xmlns:xlink="http://www.w3.org/1999/xlink" x="0px" y="0px"
	 viewBox="0 0 996.2 612" style="enable-background:new 0 0 996.2 612;" xml:space="preserve">
<style type="text/css">
	.st0{fill:#FFFFFF;}
</style>
<g>
	<path class="st0" d="M726.3,253.7c-11.6,0-18.9,3.9-18.9,14v76.6c0,10.1,7.3,14,18.9,14c11.6,0,18.8-3.9,18.8-14v-76.6
		C745.1,257.5,737.9,253.7,726.3,253.7z"/>
	<polygon class="st0" points="395.2,332 430.3,332 412.8,260.2 	"/>
	<path class="st0" d="M67.3,191v230h861.6V191H67.3z M197.2,282.9h-34.4v-15.2c0-10.1-7.3-14-18.8-14c-11.6,0-18.9,3.9-18.9,14v76.6
		c0,10.1,7.3,13.8,18.9,13.8c11.6,0,18.8-3.6,18.8-13.8V324h34.4v18.9c0,22.7-18.5,35.7-54.2,35.7s-54.2-13-54.2-35.7v-73.8
		c0-22.7,18.5-35.7,54.2-35.7s54.2,13,54.2,35.7V282.9z M334.1,377h-37v-60.8h-41.3V377h-36.4V235h36.4v60.8H297V235h37V377z
		 M441.5,377l-6.3-25.8h-44.6l-6.3,25.8h-33.4L388,235h53.2l37,141.9H441.5z M647.6,377h-34.4V275.2L588,377h-34.4l-27.1-100.4V377
		h-31.7V235h50.6l26.8,100.8L597,235h50.6V377z M781.5,342.9c0,22.7-19.5,35.7-55.2,35.7s-55.2-13-55.2-35.7v-73.8
		c0-22.7,19.5-35.7,55.2-35.7s55.2,13,55.2,35.7V342.9z M870.5,329.9v47h-36.4v-47l-46-94.9h38l27.8,64.7l27.8-64.7h34.7
		L870.5,329.9z"/>
</g>
</svg>
