<?xml version="1.0" encoding="utf-8"?>
<!-- Generator: Adobe Illustrator 22.0.1, SVG Export Plug-In . SVG Version: 6.00 Build 0)  -->
<svg version="1.1" id="Layer_1" xmlns="http://www.w3.org/2000/svg" xmlns:xlink="http://www.w3.org/1999/xlink" x="0px" y="0px"
	 viewBox="0 0 1172.6 230.2" style="enable-background:new 0 0 1172.6 230.2;" xml:space="preserve">
<style type="text/css">
	.st0{fill:#FFFFFF;}
</style>
<g>
	<path class="st0" d="M612.8,62.8c-11.6,0-18.9,3.9-18.9,14v76.6c0,10.1,7.3,14,18.9,14c11.6,0,18.8-3.9,18.8-14V76.8
		C631.7,66.7,624.4,62.8,612.8,62.8z"/>
	<polygon class="st0" points="838.3,141.1 873.4,141.1 855.9,69.3 	"/>
	<path class="st0" d="M354.2,62.8c-11.6,0-18.9,3.9-18.9,14v76.6c0,10.1,7.3,14,18.9,14c11.6,0,18.8-3.9,18.8-14V76.8
		C373.1,66.7,365.8,62.8,354.2,62.8z"/>
	<path class="st0" d="M0.1,0.1v230h1172.6V0.1H0.1z M138.6,92h-34.4V76.8c0-10.1-7.3-14-18.8-14c-11.6,0-18.9,3.9-18.9,14v76.6
		c0,10.1,7.3,13.8,18.9,13.8c11.6,0,18.8-3.6,18.8-13.8v-20.3h34.4V152c0,22.7-18.5,35.7-54.2,35.7s-54.2-13-54.2-35.7V78.2
		c0-22.7,18.5-35.7,54.2-35.7s54.2,13,54.2,35.7V92z M275.5,186.1h-37v-60.8h-41.3v60.8h-36.4V44.2h36.4V105h41.3V44.2h37V186.1z
		 M409.4,152c0,22.7-19.5,35.7-55.2,35.7S299,174.7,299,152V78.2c0-22.7,19.5-35.7,55.2-35.7s55.2,13,55.2,35.7V152z M538.4,92H504
		V76.8c0-10.1-7.3-14-18.8-14c-11.6,0-18.9,3.9-18.9,14v76.6c0,10.1,7.3,13.8,18.9,13.8c11.6,0,18.8-3.6,18.8-13.8v-20.3h34.4V152
		c0,22.7-18.5,35.7-54.2,35.7s-54.2-13-54.2-35.7V78.2c0-22.7,18.5-35.7,54.2-35.7s54.2,13,54.2,35.7V92z M668,152
		c0,22.7-19.5,35.7-55.2,35.7s-55.2-13-55.2-35.7V78.2c0-22.7,19.5-35.7,55.2-35.7s55.2,13,55.2,35.7V152z M787.7,186.1h-96.2V44.2
		h36.4v121.7h59.9V186.1z M884.6,186.1l-6.3-25.8h-44.6l-6.3,25.8H794l37-141.9h53.2l37,141.9H884.6z M1027.5,64.4h-38v121.7h-36.4
		V64.4h-38V44.2h112.4V64.4z M1142.6,64.4h-62.8V104h49.9v20.3h-49.9v41.6h62.8v20.3h-99.2V44.2h99.2V64.4z"/>
</g>
</svg>
