<?xml version="1.0" encoding="utf-8"?>
<!-- Generator: Adobe Illustrator 22.0.1, SVG Export Plug-In . SVG Version: 6.00 Build 0)  -->
<svg version="1.1" id="Layer_1" xmlns="http://www.w3.org/2000/svg" xmlns:xlink="http://www.w3.org/1999/xlink" x="0px" y="0px"
	 viewBox="0 0 861.2 230.3" style="enable-background:new 0 0 861.2 230.3;" xml:space="preserve">
<style type="text/css">
	.st0{fill:#FFFFFF;}
</style>
<g>
	<path class="st0" d="M-0.2-0.1v230h861.5v-230H-0.2z M331.1,28.1h35.7L333,50.7h-24.5L331.1,28.1z M139.6,106h-34.4V90.8
		c0-10.1-7.3-14-18.8-14c-11.6,0-18.9,3.9-18.9,14v76.6c0,10.1,7.3,13.8,18.9,13.8c11.6,0,18.8-3.6,18.8-13.8v-20.3h34.4V166
		c0,22.7-18.5,35.7-54.2,35.7c-35.7,0-54.2-13-54.2-35.7V92.2c0-22.7,18.5-35.7,54.2-35.7c35.7,0,54.2,13,54.2,35.7V106z M258,200.1
		h-96.2V58.2h36.4v121.7H258V200.1z M354.9,200.1l-6.3-25.8h-44.6l-6.3,25.8h-33.4l37-141.9h53.2l37,141.9H354.9z M457,201.7
		c-35.7,0-54.2-13-54.2-35.7v-8.7h34.4v10.1c0,10.1,7.3,13.8,18.9,13.8c11.6,0,18.8-3.6,18.8-13.8c0-29.2-71.1-34.7-71.1-75.2
		c0-22.7,18.2-35.7,53.6-35.7s53.6,13,53.6,35.7v4.5h-34.4v-5.9c0-10.1-6.6-14-18.2-14s-18.2,3.9-18.2,14
		c0,29.2,71.1,34.7,71.1,75.2C511.3,188.7,492.8,201.7,457,201.7z M568.5,200.1h-36.4V58.2h36.4V200.1z M700.4,106H666V90.8
		c0-10.1-7.3-14-18.8-14s-18.8,3.9-18.8,14v76.6c0,10.1,7.3,13.8,18.8,13.8s18.8-3.6,18.8-13.8v-20.3h34.4V166
		c0,22.7-18.5,35.7-54.2,35.7c-35.7,0-54.2-13-54.2-35.7V92.2c0-22.7,18.5-35.7,54.2-35.7c35.7,0,54.2,13,54.2,35.7V106z M830.1,166
		c0,22.7-19.5,35.7-55.2,35.7c-35.7,0-55.2-13-55.2-35.7V92.2c0-22.7,19.5-35.7,55.2-35.7c35.7,0,55.2,13,55.2,35.7V166z"/>
	<path class="st0" d="M774.8,76.8c-11.6,0-18.8,3.9-18.8,14v76.6c0,10.1,7.3,14,18.8,14s18.8-3.9,18.8-14V90.8
		C793.7,80.7,786.4,76.8,774.8,76.8z"/>
	<polygon class="st0" points="308.6,155.1 343.6,155.1 326.1,83.3 	"/>
</g>
</svg>
