<?xml version="1.0" encoding="utf-8"?>
<!-- Generator: Adobe Illustrator 22.0.1, SVG Export Plug-In . SVG Version: 6.00 Build 0)  -->
<svg version="1.1" id="Layer_1" xmlns="http://www.w3.org/2000/svg" xmlns:xlink="http://www.w3.org/1999/xlink" x="0px" y="0px"
	 viewBox="0 0 792 612" style="enable-background:new 0 0 792 612;" xml:space="preserve">
<style type="text/css">
	.st0{fill:#FFFFFF;}
</style>
<g>
	<polygon class="st0" points="636.6,335.7 673.9,335.7 655.3,243 	"/>
	<path class="st0" d="M255.4,236.7h-18.6V293h15.1c14.4,0,23.2-4.7,23.2-19.4v-18.1C275.1,242.4,269.1,236.7,255.4,236.7z"/>
	<path class="st0" d="M47,190.8v230.4h698V190.8H47z M179.6,236.7H116V292h49.8v26.2H116v75.8H77.4V210.5h102.2V236.7z M278.9,393.9
		c-2.1-4.7-3.5-7.6-3.5-22.5v-28.8c0-17-7.7-23.3-25.3-23.3h-13.3v74.7h-38.6V210.5h58.3c40,0,57.2,13.9,57.2,42.2v14.4
		c0,18.9-8.1,31.2-25.3,37.2c19.3,6,25.6,19.9,25.6,39.1v28.3c0,8.9,0.4,15.5,4.2,22.3H278.9z M444.6,236.7h-66.7v51.1h53V314h-53
		v53.7h66.7v26.2H339.3V210.5h105.3V236.7z M520.1,396c-37.9,0-57.6-16.8-57.6-46.1v-11.3H499v13.1c0,13.1,7.7,17.8,20,17.8
		s20-4.7,20-17.8c0-37.7-75.5-44.8-75.5-97.2c0-29.4,19.3-46.1,56.9-46.1c37.6,0,56.9,16.8,56.9,46.1v5.8h-36.5v-7.6
		c0-13.1-7-18.1-19.3-18.1s-19.3,5-19.3,18.1c0,37.7,75.5,44.8,75.5,97.2C577.7,379.3,558,396,520.1,396z M685.8,393.9l-6.7-33.3
		h-47.4l-6.7,33.3h-35.5l39.3-183.5h56.5l39.3,183.5H685.8z"/>
</g>
</svg>
