<?xml version="1.0" encoding="utf-8"?>
<!-- Generator: Adobe Illustrator 22.0.1, SVG Export Plug-In . SVG Version: 6.00 Build 0)  -->
<svg version="1.1" id="Layer_1" xmlns="http://www.w3.org/2000/svg" xmlns:xlink="http://www.w3.org/1999/xlink" x="0px" y="0px"
	 viewBox="0 0 697.3 228.4" style="enable-background:new 0 0 697.3 228.4;" xml:space="preserve">
<style type="text/css">
	.st0{fill:#FFFFFF;}
</style>
<g>
	<polygon class="st0" points="589.4,143.9 626.7,143.9 608.1,51.2 	"/>
	<path class="st0" d="M208.2,44.9h-18.6v56.3h15.1c14.4,0,23.2-4.7,23.2-19.4V63.7C227.9,50.6,221.9,44.9,208.2,44.9z"/>
	<path class="st0" d="M-0.2-1v230.4h698V-1H-0.2z M132.4,44.9H68.8v55.3h49.8v26.2H68.8v75.8H30.2V18.7h102.2V44.9z M231.7,202.1
		c-2.1-4.7-3.5-7.6-3.5-22.5v-28.8c0-17-7.7-23.3-25.3-23.3h-13.3v74.7H151V18.7h58.3c40,0,57.2,13.9,57.2,42.2v14.4
		c0,18.9-8.1,31.2-25.3,37.2c19.3,6,25.6,19.9,25.6,39.1v28.3c0,8.9,0.4,15.5,4.2,22.3h-39.3V202.1z M397.4,44.9h-66.7V96h53v26.2
		h-53v53.7h66.7v26.2H292.1V18.7h105.3L397.4,44.9L397.4,44.9z M472.9,204.2c-37.9,0-57.6-16.8-57.6-46.1v-11.3h36.5v13.1
		c0,13.1,7.7,17.8,20,17.8s20-4.7,20-17.8c0-37.7-75.5-44.8-75.5-97.2c0-29.4,19.3-46.1,56.9-46.1c37.6,0,56.9,16.8,56.9,46.1v5.8
		h-36.5v-7.6c0-13.1-7-18.1-19.3-18.1s-19.3,5-19.3,18.1c0,37.7,75.5,44.8,75.5,97.2C530.5,187.5,510.8,204.2,472.9,204.2z
		 M638.6,202.1l-6.7-33.3h-47.4l-6.7,33.3h-35.5l39.3-183.5h56.5l39.3,183.5H638.6z"/>
</g>
</svg>
