<?xml version="1.0" encoding="utf-8"?>
<!-- Generator: Adobe Illustrator 22.0.1, SVG Export Plug-In . SVG Version: 6.00 Build 0)  -->
<svg version="1.1" id="Layer_1" xmlns="http://www.w3.org/2000/svg" xmlns:xlink="http://www.w3.org/1999/xlink" x="0px" y="0px"
	 viewBox="0 0 659.2 231.5" style="enable-background:new 0 0 659.2 231.5;" xml:space="preserve">
<style type="text/css">
	.st0{fill:#FFFFFF;}
</style>
<g>
	<path class="st0" d="M436,78.1c-11.6,0-18.9,3.9-18.9,14v76.6c0,10.1,7.3,14,18.9,14c11.6,0,18.8-3.9,18.8-14V92.1
		C454.8,81.9,447.5,78.1,436,78.1z"/>
	<path class="st0" d="M0.1,1.2v230h659.2V1.2H0.1z M439.3,29.4H475l-33.7,22.5h-24.5L439.3,29.4z M126.1,201.3H29.9V59.4h36.4v121.7
		h59.9V201.3z M178.4,201.3H142V59.4h36.4V201.3z M357.3,201.3h-34.4V99.6l-25.1,101.8h-34.4L236.2,101v100.4h-31.7V59.4h50.6
		l26.8,100.8l24.8-100.8h50.6V201.3z M491.2,167.3c0,22.7-19.5,35.7-55.2,35.7s-55.2-13-55.2-35.7V93.5c0-22.7,19.5-35.7,55.2-35.7
		s55.2,13,55.2,35.7V167.3z M629.8,201.3h-37.4L547.1,98.5v102.8h-32.7V59.4H560l37.4,85v-85h32.4V201.3z"/>
</g>
</svg>
